<svg width="997" height="905" viewBox="0 0 997 905" fill="none" xmlns="http://www.w3.org/2000/svg">
<g clip-path="url(#clip0_2_21)">
<path d="M552.982 732.132C526.329 732.066 505.591 722.668 494.567 705.667L439.018 631.115L462.775 621.306C485.813 611.789 511.096 605.158 540.067 601.017C561.422 597.937 581.599 596.452 601.72 596.502C616.587 596.539 629.198 597.397 640.316 598.13C649.488 598.767 657.394 599.132 664.994 599.151L683.515 598.97L688.033 615.755L688.084 616.302C699.597 651.557 674.516 689.963 623.426 714.823C600.613 725.876 574.956 732.186 552.982 732.132Z" fill="white"/>
<path d="M457.469 794.123L364.634 678.013L384.104 666.208C390.5 662.317 396.777 658.306 403.054 654.228C409.812 649.804 416.717 645.394 423.928 641.038L439.484 631.624L560.604 794.392L457.47 794.137L457.47 794.123L457.469 794.123Z" fill="white"/>
<path d="M281.527 693.687C202.033 693.491 151.446 634.139 151.547 593.365C151.637 556.832 159.791 553.838 159.791 553.838L149.394 552.745C34.9814 540.768 19.8527 485.251 21.0241 453.226C22.2099 421.029 39.6449 385.431 71.4525 350.283L107.405 316.118C107.405 316.118 243.328 234.546 319.509 221.267L351.776 215.641L351.521 216.454L363.538 215.498C376.381 214.476 389.462 213.976 402.395 214.008C656.37 214.635 739.172 333.215 765.931 403.829C790.345 468.263 782.753 535.166 760.664 554.897C722.847 588.698 699.846 599.521 666.059 599.438C658.432 599.419 650.219 598.866 640.794 598.228C633.728 597.731 625.97 597.286 617.717 596.945L603.851 596.378L603.653 595.763L576.275 597.402C563.379 598.184 551.87 599.315 540.052 601.006C469.199 611.151 435.691 633.002 403.278 654.122C370.481 675.48 342.315 693.837 281.527 693.687ZM581.496 545.733C585.997 553.717 589.911 561.487 593.385 569.322L599.565 583.258L599.551 583.19C595.157 569.807 588.229 557.203 581.496 545.733Z" fill="white"/>
<path d="M784.561 396.726C755.988 321.255 668.326 194.637 402.457 193.98C185.441 193.443 5.47702 334.948 1.1725 452.485C0.0430336 483.377 11.443 553.645 133.696 570.974C132.358 577.811 131.674 585.222 131.654 593.316C131.53 643.436 188.479 713.458 281.479 713.687C313.693 713.767 337.692 708.893 357.817 701.423L441.931 806.632C445.852 811.562 451.66 814.123 457.46 814.138L560.514 814.392C564.687 814.403 568.89 813.119 572.483 810.436C581.299 803.817 583.13 791.288 576.566 782.431L553.921 752.002C579.668 751.906 607.433 744.828 632.089 732.835C690.628 704.379 719.811 656.904 707.387 612.926C726.644 606.388 747.075 593.771 773.921 569.784C801.288 545.316 813.122 472.184 784.561 396.726ZM467.104 774.147L394.46 683.299C401.044 679.301 407.507 675.184 413.971 670.974C420.555 666.684 427.245 662.38 434.27 658.144L520.704 774.279L467.104 774.147ZM614.684 696.857C576.211 715.483 527.468 719.628 511.341 694.802L470.409 639.806C489.496 631.921 512.446 625.177 542.898 620.826C586.555 614.534 615.842 616.553 639.453 618.132C649.851 618.851 659.21 619.248 668.224 619.162C668.382 619.748 668.288 620.348 668.513 620.936C679.44 649.976 649.366 679.983 614.684 696.857ZM747.339 539.957C700.048 582.226 682.957 581.051 642.164 578.257C634.938 577.759 627.007 577.299 618.54 576.945C612.797 559.424 603.569 543.694 594.791 528.953C574.542 494.917 563.832 474.155 579.256 443.367C584.186 433.499 580.242 421.489 570.402 416.504C560.56 411.559 548.63 415.556 543.606 425.384C517.571 477.268 541.393 517.301 560.526 549.454C566.249 559.069 571.027 568.254 575.098 577.424C563.602 578.116 551.293 579.191 537.235 581.197C461.901 591.985 424.894 616.161 392.241 637.44C361.057 657.749 336.43 673.823 281.576 673.687C210.282 673.511 171.48 620.561 171.547 593.414C171.685 537.44 224.802 533.545 312.229 533.761C371.496 533.908 427.483 534.046 454.713 500.286C468.703 482.974 472.574 459.277 466.22 429.887C464.217 420.509 455.979 414.115 446.779 414.092C445.379 414.089 443.938 414.244 442.525 414.549C431.733 416.869 424.879 427.519 427.226 438.297C430.89 455.292 429.686 467.677 423.667 475.129C408.461 493.998 357.38 493.872 312.314 493.761C256.446 493.623 185.46 493.447 151.456 532.858C104.826 527.983 38.908 511.02 40.9959 453.957C42.0103 426.626 58.2489 394.666 86.2601 363.708C92.727 401.178 115.186 431.967 141.666 442.42C148.127 444.942 155.257 446.439 162.657 446.458C183.351 446.509 206.126 435.005 222.46 402.499C227.39 392.631 223.447 380.621 213.606 375.636C203.765 370.691 191.834 374.688 186.824 384.517C177.738 402.694 167.548 409.469 156.266 405.188C138.324 398.091 118.887 364.362 125.726 327.152C175.356 287.928 243.839 254.764 322.941 240.971C318.574 255.014 309.239 271.738 301.391 285.345C285.617 312.533 272.039 336.059 283.522 356.155C290.226 367.812 303.238 373.737 322.212 373.784C333.238 373.811 342.181 364.886 342.208 353.833C342.237 342.273 331.469 334.739 320.831 333.739C323.97 326.014 330.894 314.043 335.901 305.376C348.636 283.34 362.602 259.109 365.142 235.407C377.358 234.437 389.772 233.947 402.36 233.978C644.347 234.576 722.316 345.077 747.247 410.886C770.892 473.334 759.728 528.893 747.339 539.957Z" fill="black"/>
<path d="M570.673 312.37C516.484 290.942 450.293 292.859 424.137 345.088C419.206 354.956 423.15 366.966 432.991 371.951C442.912 376.976 454.803 372.978 459.787 363.07C474.619 333.574 520.096 335.446 556.062 349.561C592.187 363.824 626.167 394.068 618.03 422.101C614.964 432.72 621.017 443.829 631.61 446.894C633.435 447.446 635.314 447.69 637.141 447.694C645.835 447.716 653.796 442.029 656.35 433.288C671.922 379.568 622.863 332.926 570.673 312.37Z" fill="black"/>
</g>
<path d="M531.631 643.763C529.978 650.729 533.847 657.82 540.6 660.2C547.352 662.58 554.813 659.481 557.892 653.017L545.253 646.996C557.892 653.017 557.893 653.015 557.894 653.012L557.902 652.996L557.932 652.933L558.051 652.684L558.521 651.697L560.353 647.85L567.31 633.248L592.139 581.128L667.485 422.967C675.986 405.122 684.501 387.247 692.821 369.783C735.756 279.658 773.481 200.468 777.136 192.739L777.154 192.747L789.319 166.579C791.621 161.629 790.834 155.792 787.305 151.626C783.776 147.461 778.147 145.728 772.885 147.186C749.648 153.625 711.912 163.005 679.724 170.954C676.337 171.79 673.013 172.611 669.774 173.41C661.38 175.481 653.567 177.409 646.764 179.099C648.757 173.574 650.934 167.533 653.228 161.164C658.865 145.518 665.213 127.898 671.305 111.113C678.056 92.5107 684.503 74.9029 689.382 61.9653C691.828 55.4784 693.841 50.2683 695.284 46.7225C695.896 45.2189 696.354 44.1446 696.667 43.4482C698.166 41.2252 699.044 38.5481 699.051 35.6654C699.07 27.9334 692.817 21.65 685.085 21.6309L684.823 21.6302L684.56 21.6296L684.297 21.6289L684.035 21.6283L683.772 21.6276L683.509 21.627L683.247 21.6263L682.984 21.6257L682.721 21.625L682.459 21.6244L682.196 21.6237L681.933 21.6231L681.67 21.6224L681.408 21.6218L681.145 21.6211L680.882 21.6205L680.62 21.6198L680.357 21.6192L680.094 21.6185L679.832 21.6179L679.569 21.6172L679.306 21.6166L679.044 21.6159L678.781 21.6153L678.518 21.6146L678.255 21.614L677.993 21.6133L677.73 21.6127L677.467 21.612L677.205 21.6114L676.942 21.6107L676.679 21.6101L676.417 21.6094L676.154 21.6088L675.891 21.6081L675.629 21.6075L675.366 21.6068L675.103 21.6062L674.84 21.6055L674.578 21.6049L674.315 21.6042L674.052 21.6036L673.79 21.603L673.527 21.6023L673.264 21.6017L673.002 21.601L672.739 21.6004L672.476 21.5997L672.214 21.5991L671.951 21.5984L671.688 21.5978L671.425 21.5971L671.163 21.5965L670.9 21.5958L670.637 21.5952L670.375 21.5945L670.112 21.5939L669.849 21.5932L669.587 21.5926L669.324 21.5919L669.061 21.5913L668.799 21.5906L668.536 21.59L668.273 21.5893L668.01 21.5887L667.748 21.588L667.485 21.5874L667.222 21.5867L666.96 21.5861L666.697 21.5854L666.434 21.5848L666.172 21.5841L665.909 21.5835L665.646 21.5828L665.384 21.5822L665.121 21.5815L664.858 21.5809L664.595 21.5802L664.333 21.5796L664.07 21.5789L663.807 21.5783L663.545 21.5776L663.282 21.577L663.019 21.5763L662.757 21.5757L662.494 21.575L662.231 21.5744L661.969 21.5737L661.706 21.5731L661.443 21.5724L661.18 21.5718L660.918 21.5711L660.655 21.5705L660.392 21.5699L660.13 21.5692L659.867 21.5686L659.604 21.5679L659.342 21.5673L659.079 21.5666L658.816 21.566L658.554 21.5653L658.291 21.5647L658.028 21.564L657.766 21.5634L657.503 21.5627L657.24 21.5621L656.977 21.5614L656.715 21.5608L656.452 21.5601L656.189 21.5595L655.927 21.5588L655.664 21.5582L655.401 21.5575L655.139 21.5569L654.876 21.5562L654.613 21.5556L654.351 21.5549L654.088 21.5543L653.825 21.5536L653.562 21.553L653.3 21.5523L653.037 21.5517L652.774 21.551L652.512 21.5504L652.249 21.5497L651.986 21.5491L651.724 21.5484L651.461 21.5478L651.198 21.5471L650.936 21.5465L650.673 21.5458L650.41 21.5452L650.147 21.5445L649.885 21.5439L649.622 21.5432L649.359 21.5426L649.097 21.5419L648.834 21.5413L648.571 21.5406L648.309 21.54L648.046 21.5393L647.783 21.5387L647.521 21.538L647.258 21.5374L646.995 21.5367L646.732 21.5361L646.47 21.5355L646.207 21.5348L645.944 21.5342L645.682 21.5335L645.419 21.5329L645.156 21.5322L644.894 21.5316L644.631 21.5309L644.368 21.5303L644.106 21.5296L643.843 21.529L643.58 21.5283L643.317 21.5277L643.055 21.527L642.792 21.5264L642.529 21.5257L642.267 21.5251L642.004 21.5244L641.741 21.5238L641.479 21.5231L641.216 21.5225L640.953 21.5218L640.691 21.5212L640.428 21.5205L640.165 21.5199L639.902 21.5192L639.64 21.5186L639.377 21.5179L639.114 21.5173L638.852 21.5166L638.589 21.516L638.326 21.5153L638.064 21.5147L637.801 21.514L637.538 21.5134L637.276 21.5127L637.013 21.5121L636.75 21.5114L636.487 21.5108L636.225 21.5101L635.962 21.5095L635.699 21.5088L635.437 21.5082L635.174 21.5075L634.911 21.5069L634.649 21.5062L634.386 21.5056L634.123 21.5049L633.861 21.5043L633.598 21.5036L633.335 21.503L633.073 21.5023L632.81 21.5017L632.547 21.5011L632.284 21.5004L632.022 21.4998L631.759 21.4991L631.496 21.4985L631.234 21.4978L630.971 21.4972L630.708 21.4965L630.446 21.4959L630.183 21.4952L629.92 21.4946L629.658 21.4939L629.395 21.4933L629.132 21.4926L628.869 21.492L628.607 21.4913L628.344 21.4907L628.081 21.49L627.819 21.4894L627.556 21.4887L627.293 21.4881L627.031 21.4874L626.768 21.4868L626.505 21.4861L626.243 21.4855L625.98 21.4848L625.717 21.4842L625.454 21.4835L625.192 21.4829L624.929 21.4822L624.666 21.4816L624.404 21.4809L624.141 21.4803L623.878 21.4796L623.616 21.479L623.353 21.4783L623.09 21.4777L622.828 21.477L622.565 21.4764L622.302 21.4757L622.039 21.4751L621.777 21.4744L621.514 21.4738L621.251 21.4731L620.989 21.4725L620.726 21.4718L620.463 21.4712L620.201 21.4705L619.938 21.4699L619.675 21.4692L619.413 21.4686L619.15 21.4679L618.887 21.4673L618.625 21.4667L618.362 21.466L618.099 21.4654L617.836 21.4647L617.574 21.4641L617.311 21.4634L617.048 21.4628L616.786 21.4621L616.523 21.4615L616.26 21.4608L615.998 21.4602L615.735 21.4595L615.472 21.4589L615.21 21.4582L614.947 21.4576L614.684 21.4569L614.421 21.4563L614.159 21.4556L613.896 21.455L613.633 21.4543L613.371 21.4537L613.108 21.453L612.845 21.4524L612.583 21.4517L612.32 21.4511L612.057 21.4504L611.795 21.4498L611.532 21.4491L611.269 21.4485L611.007 21.4478L610.744 21.4472L610.481 21.4465L610.218 21.4459L609.956 21.4452L609.693 21.4446L609.43 21.4439L609.168 21.4433L608.905 21.4426L608.642 21.442L608.38 21.4413L608.117 21.4407L607.854 21.44L607.592 21.4394L607.329 21.4387L607.066 21.4381L606.803 21.4374L606.541 21.4368L606.278 21.4361L606.015 21.4355L605.753 21.4348L605.49 21.4342L605.227 21.4335L604.965 21.4329L604.702 21.4323L604.439 21.4316L604.177 21.431L603.914 21.4303L603.651 21.4297L603.389 21.429L603.126 21.4284L602.863 21.4277L602.6 21.4271L602.338 21.4264L602.075 21.4258L601.812 21.4251L601.55 21.4245L601.287 21.4238L601.024 21.4232L600.762 21.4225L600.499 21.4219L600.236 21.4212L599.974 21.4206L599.711 21.4199L599.448 21.4193L599.185 21.4186L598.923 21.418L598.66 21.4173L598.397 21.4167L598.135 21.416L597.872 21.4154L597.609 21.4147L597.347 21.4141L597.084 21.4134L596.821 21.4128L596.559 21.4121L596.296 21.4115L596.033 21.4108L595.771 21.4102L595.508 21.4095L595.245 21.4089L594.982 21.4082L594.72 21.4076L594.457 21.4069L594.194 21.4063L593.932 21.4056L593.669 21.405L593.406 21.4043L593.144 21.4037L592.881 21.403L592.618 21.4024L592.356 21.4017L592.093 21.4011L591.83 21.4004L591.567 21.3998L591.305 21.3992L591.042 21.3985L590.779 21.3979L590.517 21.3972L590.254 21.3966L589.991 21.3959L589.729 21.3953L589.466 21.3946L589.203 21.394L588.941 21.3933L588.678 21.3927L588.415 21.392L588.153 21.3914L587.89 21.3907L587.627 21.3901L587.364 21.3894L587.102 21.3888L586.839 21.3881L586.576 21.3875L586.314 21.3868L586.051 21.3862L585.788 21.3855L585.526 21.3849L585.263 21.3842L585 21.3836L584.738 21.3829L584.475 21.3823L584.212 21.3816L583.95 21.381L583.687 21.3803L583.424 21.3797L583.161 21.379L582.899 21.3784L582.636 21.3777L582.373 21.3771L582.111 21.3764L581.848 21.3758L581.585 21.3751L581.323 21.3745L581.06 21.3738L580.797 21.3732L580.535 21.3725L580.272 21.3719L580.009 21.3712L579.747 21.3706L579.484 21.3699L579.221 21.3693L578.958 21.3686L578.696 21.368L578.433 21.3673L578.17 21.3667L577.908 21.366L577.645 21.3654L577.382 21.3648L577.12 21.3641L576.857 21.3635L576.594 21.3628L576.332 21.3622L576.069 21.3615L575.806 21.3609L575.544 21.3602L575.281 21.3596L575.018 21.3589L574.755 21.3583L574.493 21.3576L574.23 21.357L573.967 21.3563L573.705 21.3557L573.442 21.355L573.179 21.3544L572.917 21.3537L572.654 21.3531L572.391 21.3524L572.129 21.3518L571.866 21.3511L571.603 21.3505L571.341 21.3498L571.078 21.3492L570.815 21.3485L570.552 21.3479L570.29 21.3472L570.027 21.3466L569.764 21.3459L569.502 21.3453L569.239 21.3446L568.976 21.344L568.714 21.3433L568.451 21.3427L568.188 21.342L567.926 21.3414L567.663 21.3407L567.4 21.3401L567.138 21.3394L566.875 21.3388L566.612 21.3381L566.349 21.3375L566.087 21.3368L565.824 21.3362L565.561 21.3355L565.299 21.3349L565.036 21.3342L564.773 21.3336L564.511 21.3329L564.248 21.3323L563.985 21.3316L563.723 21.331L563.46 21.3304L563.197 21.3297L562.935 21.3291L562.672 21.3284L562.409 21.3278L562.146 21.3271L561.884 21.3265L561.621 21.3258L561.358 21.3252L561.096 21.3245L560.833 21.3239L560.57 21.3232L560.308 21.3226L560.045 21.3219L559.782 21.3213L559.52 21.3206L559.257 21.32L558.994 21.3193L558.732 21.3187L558.469 21.318L558.206 21.3174L557.944 21.3167L557.681 21.3161L557.418 21.3154L557.155 21.3148L556.893 21.3141L556.63 21.3135L556.367 21.3128L556.105 21.3122L555.842 21.3115L555.579 21.3109L555.317 21.3102L555.054 21.3096L554.791 21.3089L554.529 21.3083L554.266 21.3076L554.003 21.307L553.741 21.3063L553.478 21.3057L553.215 21.305L552.952 21.3044L552.69 21.3037L552.427 21.3031L552.164 21.3024L551.902 21.3018L551.639 21.3011L551.376 21.3005L551.114 21.2998L550.851 21.2992L550.588 21.2985C543.994 21.2823 538.282 25.8699 536.876 32.3124L523.123 95.3062L465.22 324.197C464.005 328.999 465.418 334.086 468.937 337.573C472.455 341.06 477.554 342.429 482.345 341.172L611.499 307.284L531.631 643.763Z" fill="#F2FF37" stroke="black" stroke-width="28" stroke-linejoin="round"/>
<path d="M176.377 602.9L176.375 602.912L174.623 611.906C170.625 613.802 166.783 616.002 163.138 618.497L154.53 615.532L154.529 615.532C144.832 612.192 134.184 616.214 129.071 625.034L129.065 625.045L129.058 625.056L115.488 648.575L115.483 648.584C110.397 657.416 112.225 668.666 119.966 675.4L119.967 675.4L126.853 681.389C126.667 683.534 126.558 685.739 126.558 688C126.558 690.261 126.667 692.466 126.853 694.611L119.967 700.6L119.966 700.6C112.225 707.334 110.397 718.584 115.483 727.416L115.488 727.425L129.053 750.936C129.054 750.937 129.056 750.939 129.057 750.941C129.057 750.942 129.058 750.943 129.058 750.944C134.169 759.809 144.837 763.802 154.506 760.494L154.518 760.49L154.53 760.486L163.142 757.52C166.789 760.012 170.63 762.206 174.623 764.097L176.375 773.088L176.377 773.1C178.336 783.111 187.09 790.375 197.346 790.375H224.521C234.777 790.375 243.53 783.111 245.49 773.1L245.492 773.088L247.244 764.094C251.242 762.198 255.084 759.998 258.729 757.503L267.337 760.468L267.338 760.468C277.019 763.802 287.681 759.81 292.802 750.955L292.806 750.948L292.81 750.941L306.381 727.404L306.384 727.399C311.474 718.56 309.636 707.329 301.901 700.6L301.9 700.6L295.014 694.611C295.2 692.466 295.308 690.261 295.308 688C295.308 685.739 295.2 683.534 295.014 681.389L301.9 675.4L301.901 675.4C309.642 668.666 311.47 657.416 306.384 648.584L306.379 648.575L292.813 625.064C292.812 625.061 292.81 625.059 292.808 625.056C287.698 616.191 277.03 612.198 267.361 615.506L267.349 615.51L267.337 615.514L258.725 618.48C255.078 615.988 251.237 613.794 247.244 611.903L245.492 602.912L245.49 602.9C243.53 592.889 234.777 585.625 224.521 585.625H197.346C187.09 585.625 178.336 592.889 176.377 602.9ZM210.933 664.375C223.98 664.375 234.558 674.954 234.558 688C234.558 701.046 223.98 711.625 210.933 711.625C197.887 711.625 187.308 701.046 187.308 688C187.308 674.954 197.887 664.375 210.933 664.375Z" fill="#989898" stroke="black" stroke-width="24.75"/>
<defs>
<clipPath id="clip0_2_21">
<rect width="800" height="800" fill="white" transform="translate(1.97662 103) rotate(0.141565)"/>
</clipPath>
</defs>
</svg>
